Coordinates
version=1
nRows=10
nColumns=22
inDegrees=yes

Units are S.I. units (second, meters, Newtons, ...)
If the header above contains a line with 'inDegrees', this indicates whether rotational values are in degrees (yes) or radians (no).

endheader
time	pelvis_tilt	pelvis_list	pelvis_rotation	pelvis_tx	pelvis_ty	pelvis_tz	hip_flexion_r	hip_adduction_r	hip_rotation_r	knee_angle_r	ankle_angle_r	subtalar_angle_r	hip_flexion_l	hip_adduction_l	hip_rotation_l	knee_angle_l	ankle_angle_l	subtalar_angle_l	lumbar_extension	lumbar_bending	lumbar_rotation
      0.01000000	    -14.05631189	     -3.05367283	     -2.69293686	     -1.01901175	      0.97609137	     -0.17633807	     18.72617758	      4.05391967	     -1.72722135	    -15.52078014	     15.30582379	    -10.92662177	     19.68253301	     -2.65612489	     -4.55707206	    -17.25582271	     20.00316202	     -0.26436498	      7.52549733	      4.08265002	      3.20856533
      0.02000000	    -14.06018434	     -3.05638583	     -2.68789280	     -1.01904788	      0.97609509	     -0.17642015	     18.73068378	      4.05111392	     -1.72736025	    -15.51799644	     15.30498733	    -10.92525302	     19.68685089	     -2.65280625	     -4.55999921	    -17.25007494	     20.00323725	     -0.26505366	      7.51543543	      4.08395884	      3.20932238
      0.03000000	    -14.06467812	     -3.05885991	     -2.68142811	     -1.01909035	      0.97610074	     -0.17651532	     18.73560780	      4.04676501	     -1.72817274	    -15.51415017	     15.30315638	    -10.92330560	     19.69213624	     -2.64845372	     -4.56465293	    -17.24360206	     20.00176206	     -0.26607331	      7.50317463	      4.08413708	      3.20813698
      0.04000000	    -14.06994891	     -3.06133638	     -2.67522024	     -1.01914066	      0.97610533	     -0.17661561	     18.74101128	      4.04220765	     -1.72940014	    -15.50865582	     15.30119941	    -10.92153919	     19.69834163	     -2.64400720	     -4.56991541	    -17.23629549	     19.99954054	     -0.26700831	      7.48890370	      4.08363911	      3.20602798
      0.05000000	    -14.07213448	     -3.05102491	     -2.65641191	     -1.01916811	      0.97612123	     -0.17674055	     18.73902917	      4.01868127	     -1.74529165	    -15.49732844	     15.27918775	    -10.90569261	     19.70213157	     -2.62392110	     -4.59356379	    -17.22825134	     19.96988325	     -0.27506673	      7.47625808	      4.06541820	      3.17651237
      0.06000000	    -14.07855752	     -3.05392052	     -2.65594061	     -1.01922357	      0.97612477	     -0.17682867	     18.74545161	      4.01624818	     -1.74724056	    -15.48996993	     15.27923820	    -10.90438299	     19.70810933	     -2.62131918	     -4.59456197	    -17.22039986	     19.96815949	     -0.27571843	      7.45968419	      4.06447455	      3.17665368
      0.07000000	    -14.08475778	     -3.05684349	     -2.65344653	     -1.01927289	      0.97612894	     -0.17691632	     18.75087231	      4.01355466	     -1.74908592	    -15.48245532	     15.27823764	    -10.90284912	     19.71378660	     -2.61839630	     -4.59642485	    -17.21236893	     19.96559235	     -0.27649902	      7.44404742	      4.06305115	      3.17672847
      0.08000000	    -14.09060597	     -3.05927272	     -2.65227348	     -1.01931570	      0.97613435	     -0.17699462	     18.75536869	      4.01121348	     -1.75142489	    -15.47431538	     15.27634650	    -10.90113201	     19.71902237	     -2.61559070	     -4.59778253	    -17.20494976	     19.96235452	     -0.27735063	      7.42920203	      4.06055263	      3.17663926
      0.09000000	    -14.09602345	     -3.06111249	     -2.65260268	     -1.01935608	      0.97613999	     -0.17706236	     18.75904895	      4.00911920	     -1.75420879	    -15.46541200	     15.27349983	    -10.89922200	     19.72398837	     -2.61296499	     -4.59808368	    -17.19814669	     19.95851919	     -0.27827208	      7.41470373	      4.05718593	      3.17699019
      0.10000000	    -14.09207824	     -3.05257759	     -2.64541485	     -1.01936778	      0.97617682	     -0.17713972	     18.73951016	      3.99251479	     -1.76920155	    -15.43139511	     15.23168336	    -10.87859933	     19.71522449	     -2.59474234	     -4.58090283	    -17.18556909	     19.91383433	     -0.28893805	      7.39628080	      4.03786072	      3.19002141
